<?xml version="1.0" encoding="utf-8"?>
<!-- Generator: Adobe Illustrator 22.0.0, SVG Export Plug-In . SVG Version: 6.00 Build 0)  -->
<svg version="1.1" id="Layer_1" xmlns="http://www.w3.org/2000/svg" xmlns:xlink="http://www.w3.org/1999/xlink" x="0px" y="0px"
	 viewBox="0 0 151.9 151.9" style="enable-background:new 0 0 151.9 151.9;" xml:space="preserve">
<style type="text/css">
	.st0{fill:#FCFCFC;}
	.st1{fill:#002C8B;}
	.st2{fill:#FFDF01;}
	.st3{fill:#C52CD8;}
	.st4{fill:#C52BDC;}
</style>
<rect class="st0" width="151.9" height="151.9"/>
<path class="st1" d="M15.7,78.4l38.9-19.6v11L35,78.7l19.6,8.8v11L15.7,79V78.4z"/>
<path class="st2" d="M70.2,105.7h-9.7l21.2-59.4h9.7L70.2,105.7z"/>
<path class="st3" d="M136.1,78.9L97.2,98.4v-11l19.5-8.8l-19.5-8.9v-11l38.9,19.6V78.9z"/>
<g>
	<path d="M496.3,1048.1c15.5-0.7,32.1,8.7,34.7,29.4c1.4,11.5-3.8,24.6-16.6,31.7c-13.9,7.7-32.4,5.1-43.2-7.1
		c-13.3-15-10-42.1,11.6-51.4C487.3,1048.8,492,1047.8,496.3,1048.1z M517.7,1080.3c-0.1-11.2-9.4-20.3-20.6-20.3
		c-11.5,0-20.7,9.4-20.6,20.9c0.1,11.3,9.1,20,20.6,20C508.8,1101,517.8,1092,517.7,1080.3z"/>
	<path d="M318.3,1112.2c-4.8,0-9.2,0-14.2,0c-2.1-3.6-4.3-7.4-6.5-11.4c-10.2,0-20.3,0-31.1,0c-2,3.5-4.1,7.4-6.4,11.4
		c-4.5,0-8.9,0-13.4,0c1-4.4,24.9-48.3,35.6-65.2C294.4,1068.8,306.2,1090.3,318.3,1112.2z M291.3,1089c-3.1-6-5.9-11.2-9.2-17.5
		c-3.5,6.3-6.6,11.5-8.9,17.5C279.1,1089,284.5,1089,291.3,1089z"/>
	<path d="M-415.4,1046.8c-12.3,22.1-24.2,43.5-36.3,65.3c5.3,0,9.9,0,14.4,0c2.2-3.9,4.3-7.7,6.3-11.3c10.6,0,20.9,0,31.1,0
		c2.2,3.9,4.4,7.6,6.5,11.4c4.6,0,9.1,0,14.2,0C-391.4,1090.3-402.9,1068.6-415.4,1046.8z M-406.6,1089.3h-3.1h-3.4h-3.3h-7.7
		l8.6-17.5L-406.6,1089.3z"/>
	<path d="M-98.2,1046.8c-12.3,22.1-24.2,43.5-36.3,65.3c5.3,0,9.9,0,14.4,0c2.2-3.9,4.3-7.7,6.3-11.3c10.6,0,20.9,0,31.1,0
		c2.2,3.9,4.4,7.6,6.5,11.4c4.6,0,9.1,0,14.2,0C-74.2,1090.3-85.7,1068.6-98.2,1046.8z M-89.5,1089.3h-3.1H-96h-3.3h-7.7l8.6-17.5
		L-89.5,1089.3z"/>
	<path d="M281.6,1046.8c-12.3,22.1-24.2,43.5-36.3,65.3c5.3,0,9.9,0,14.4,0c2.2-3.9,4.3-7.7,6.3-11.3c10.6,0,20.9,0,31.1,0
		c2.2,3.9,4.4,7.6,6.5,11.4c4.6,0,9.1,0,14.2,0C305.6,1090.3,294.1,1068.6,281.6,1046.8z M290.4,1089.3h-3.1h-3.4h-3.3h-7.7
		l8.6-17.5L290.4,1089.3z"/>
	<path d="M-357.7,1049.7c-4.7,0-8.6,0-12.8,0c0,21,0,41.5,0,62.4c1.9,0,3.8,0,5.8,0c13.1,0,26,0,39.3,0V1100v-0.6h-32.3
		C-357.7,1082.7-357.7,1066.3-357.7,1049.7z"/>
	<path d="M-329.4,1049.7v0.4v8.7v2.2v0.3h20.1c0,17.3,0,33.9,0,50.7c4.6,0,8.8,0,13.5,0c0-16.9,0-33.6,0-50.7h20.1v-0.3V1050v-0.4
		L-329.4,1049.7L-329.4,1049.7z"/>
	<polygon points="-219.9,1049.7 -219.9,1072 -251.1,1072 -251.1,1049.7 -264,1049.7 -264,1112.1 -251.1,1112.1 -251.1,1085.8 
		-219.9,1085.8 -219.9,1112.1 -207.1,1112.1 -207.1,1049.7 	"/>
	<polygon points="223.4,1049.7 223.4,1072 192.2,1072 192.2,1049.7 179.4,1049.7 179.4,1112.1 192.2,1112.1 192.2,1085.8 
		223.4,1085.8 223.4,1112.1 236.3,1112.1 236.3,1049.7 	"/>
	<polygon points="-139.2,1060.8 -139.2,1049.6 -174.9,1049.6 -178.2,1049.6 -187.6,1049.6 -187.6,1112 -186,1112 -174.9,1112 
		-139.2,1112 -139.2,1099.7 -174.9,1099.7 -174.9,1084.3 -149.6,1084.3 -149.6,1072.8 -174.9,1072.8 -174.9,1060.8 	"/>
	<path d="M385.5,1049.6c-4.2,0-8.4,0-12.9,0c0,2.5,0,5,0,7.3c0,1.2,0,2.4,0,3.5v3.5v11.8v5.3v5.5v4.2l-32.6-41.4c-4.5,0-8.5,0-13,0
		c0,21.2,0,41.8,0,62.6c4.3,0,8.2,0,12.8,0c0-14,0-27.7,0-41.4c12.1,13.4,22.2,27.9,32.9,41.4c4.7,0,8.9,0,13.1,0
		c0-0.3,0.1-0.7,0.1-1.2l0,0v-57v-4.2L385.5,1049.6L385.5,1049.6z"/>
	<path d="M604.5,1049.8c-4.2,0-8.4,0-12.9,0c0,2.5,0,5,0,7.3c0,1.2,0,2.4,0,3.5v3.5v11.8v5.3v5.5v4.2l-32.6-41.4c-4.5,0-8.5,0-13,0
		c0,21.2,0,41.8,0,62.6c4.3,0,8.2,0,12.8,0c0-14,0-27.7,0-41.4c12.1,13.4,22.2,27.9,32.9,41.4c4.7,0,8.9,0,13.1,0
		c0-0.3,0.1-0.7,0.1-1.2l0,0v-57v-4.2L604.5,1049.8L604.5,1049.8z"/>
	<path d="M445.2,1080c-2.6-1.6-5.6-2.7-8.6-3.5c-4.8-1.4-9.8-2.3-14.7-3.6c-2.6-0.7-4.7-2-5.6-4.3l0,0c0,0-0.1-0.4-0.3-0.9
		c0-0.1-0.1-0.3-0.1-0.4c0-0.3-0.1-0.5-0.1-0.8c0-0.1,0-0.2,0-0.3c0,0,0,0,0-0.1c0-2.7,1.6-6.5,10.7-6.1c0.9,0.1,3.2,0.4,8.1,1.7
		c3.2,0.9,6.5,1.9,9.9,2.9c2-3,4-6,6.3-9.4c-9.4-5.9-20.1-7.5-29-6.7c-5.3,0.5-10.3,2.3-14.4,5.8c-3.3,2.9-5.6,6.4-5.7,11
		c-0.3,8.4,3.4,14.5,11.6,17.6c4.5,1.7,9.3,2.5,14,3.8c3,0.8,6.1,1.4,8.8,2.8c3.9,1.9,4.2,6.6,0.5,9c-2,1.3-4.6,2.1-7,2.4
		c-5.9,0.7-11.6-0.5-17.1-2.6c-2.1-0.8-4.2-1.7-6.5-2.6c-2.4,3.6-4.6,6.7-6.7,9.9c0.7,0.6,1,0.8,1.3,1c8.1,4.9,17.2,6.4,26.3,6.6
		c7,0.2,13.9-1.5,19.7-6.1C455.8,1099.8,455.2,1086,445.2,1080z"/>
</g>
<path class="st4" d="M77.1,1055.8c0.1,0.4,34.9,21.1,34.9,21.1v10.1l-34.9,21.1v-14.4l21.3-11.8l-20.7-11.1L77.1,1055.8z"/>
<path class="st1" d="M22.2,1055.8c-0.1,0.4-34.9,21.1-34.9,21.1v10.1l34.9,21.1v-14.4l-21.3-11.8l20.7-11.1L22.2,1055.8z"/>
<path class="st2" d="M55,1050.6c0.7,0,12.2,0,12.2,0l-23.1,63.1H31L55,1050.6z"/>
</svg>
