<?xml version="1.0" encoding="utf-8"?>
<!-- Generator: Adobe Illustrator 22.0.0, SVG Export Plug-In . SVG Version: 6.00 Build 0)  -->
<svg version="1.1" id="Layer_1" xmlns="http://www.w3.org/2000/svg" xmlns:xlink="http://www.w3.org/1999/xlink" x="0px" y="0px"
	 viewBox="0 0 1165 116.6" style="enable-background:new 0 0 1165 116.6;" xml:space="preserve">
<style type="text/css">
	.st0{fill:#FCFCFC;}
	.st1{fill:#002C8B;}
	.st2{fill:#FFDF01;}
	.st3{fill:#C52CD8;}
	.st4{fill:#C52BDC;}
</style>
<path class="st0" d="M199.3,27.7h0.7l30.1,59.6l-0.4,0.6h-13.3l-3.9-8.7h-25.8l-4,8.7h-13l-0.5-0.6L199.3,27.7z M199.6,50.6l-7.7,17
	h15.3L199.6,50.6z"/>
<path class="st0" d="M273,75.1v12.8h-36.9V28.5h13V75H273V75.1z"/>
<path class="st0" d="M300.5,88h-13V41.5h-18.7V28.7h50.5v12.8h-18.7L300.5,88L300.5,88z"/>
<path class="st0" d="M339.3,88h-13V28.6h13V54h28.1V28.6h13V88h-13V66.8h-28.1V88z"/>
<path class="st0" d="M429.2,75.6V88h-36.7V28.6h36.7V41h-23.7v13h19.6v11.6h-19.6v10H429.2z"/>
<path class="st0" d="M462.7,27.7h0.7l30.1,59.6l-0.4,0.6h-13.3l-3.9-8.7h-25.8l-4,8.7h-13l-0.5-0.6L462.7,27.7z M463.1,50.6l-7.7,17
	h15.3L463.1,50.6z"/>
<path class="st1" d="M520.8,60.7l38.9-19.6v11L540.1,61l19.6,8.8v11l-38.9-19.5V60.7z"/>
<path class="st2" d="M575.3,88h-9.7l21.2-59.4h9.7L575.3,88z"/>
<path class="st3" d="M641.2,61.2l-38.9,19.5v-11l19.5-8.8L602.3,52V41l38.9,19.6V61.2z"/>
<path class="st0" d="M687.6,88h-13V28.6h13V54h28.1V28.6h13V88h-13V66.8h-28.1V88z"/>
<path class="st0" d="M764.7,27.7h0.7l30.1,59.6l-0.4,0.6h-13.3l-3.9-8.7h-25.8l-4,8.7h-13l-0.5-0.6L764.7,27.7z M765,50.6l-7.7,17
	h15.3L765,50.6z"/>
<path class="st0" d="M814.5,88h-13V27.7h0.8L842,62.3V28.6h13v60.3h-0.8L814.5,54L814.5,88L814.5,88z"/>
<path class="st0" d="M865.2,44.7c0-5.2,1.8-9.4,5.3-12.4s8.1-4.6,13.6-4.6c7.8,0,14.1,2.9,18.7,8.6l-9.5,9c-3-3.4-6.2-5.2-9.5-5.2
	c-1.6,0-2.9,0.4-4,1.2s-1.6,1.9-1.6,3.3c0,0.8,0.2,1.4,0.6,2.1c0.4,0.6,1.1,1.3,2.2,2c1,0.7,2,1.3,2.8,1.7c0.8,0.5,2.2,1.2,4.1,2.1
	c1.9,0.9,3.3,1.7,4.4,2.2c8.2,4.3,12.3,9.8,12.3,16.7c0,5.1-1.8,9.3-5.4,12.6s-8.4,4.9-14.6,4.9c-4.7,0-9-0.9-12.6-2.7
	c-3.7-1.8-6.7-4.3-9.1-7.4l9.5-9c3.4,4.4,7.6,6.5,12.4,6.5c2,0,3.7-0.5,4.9-1.5c1.2-1,1.9-2.2,1.9-3.7c0-2.3-2.4-4.7-7.3-7.3
	c-0.6-0.3-2.7-1.3-6.2-3.1C869.5,56.6,865.2,51.3,865.2,44.7z"/>
<path class="st0" d="M939.9,88.9c-8.9,0-16.2-2.9-21.8-8.8c-5.7-5.8-8.5-13.1-8.5-21.8c0-8.6,2.9-15.8,8.6-21.7s13.1-8.9,22.1-8.9
	s16.3,2.9,21.9,8.8c5.6,5.9,8.4,13.2,8.4,21.8S967.7,74.1,962,80C956.2,85.9,948.8,88.9,939.9,88.9z M939.9,76c4.8,0,9-1.7,12.3-5.1
	c3.4-3.4,5-7.6,5-12.5c0-5.3-1.7-9.6-5-12.9c-3.3-3.3-7.4-5-12.4-5c-4.8,0-8.9,1.7-12.2,5c-3.3,3.3-5,7.6-5,12.8c0,5,1.7,9.1,5,12.5
	C931.1,74.3,935.1,76,939.9,76z"/>
<path class="st0" d="M992.4,88h-13V27.7h0.8l39.7,34.6V28.6h13v60.3h-0.8L992.4,54V88z"/>
<g>
	<path d="M1001.4,1030.4c15.5-0.7,32.1,8.7,34.7,29.4c1.4,11.5-3.8,24.6-16.6,31.7c-13.9,7.7-32.4,5.1-43.2-7.1
		c-13.3-15-10-42.1,11.6-51.4C992.4,1031.1,997.1,1030.2,1001.4,1030.4z M1022.8,1062.7c-0.1-11.2-9.4-20.3-20.6-20.3
		c-11.5,0-20.7,9.4-20.6,20.9c0.1,11.3,9.1,20,20.6,20C1013.9,1083.3,1022.9,1074.3,1022.8,1062.7z"/>
	<path d="M823.4,1094.5c-4.8,0-9.2,0-14.2,0c-2.1-3.6-4.3-7.4-6.5-11.4c-10.2,0-20.3,0-31.1,0c-2,3.5-4.1,7.4-6.4,11.4
		c-4.5,0-8.9,0-13.4,0c1-4.4,24.9-48.3,35.6-65.2C799.5,1051.1,811.3,1072.6,823.4,1094.5z M796.4,1071.3c-3.1-6-5.9-11.2-9.2-17.5
		c-3.5,6.3-6.6,11.5-8.9,17.5C784.2,1071.3,789.6,1071.3,796.4,1071.3z"/>
	<path d="M89.7,1029.1c-12.3,22.1-24.2,43.5-36.3,65.3c5.3,0,9.9,0,14.4,0c2.2-3.9,4.3-7.7,6.3-11.3c10.6,0,20.9,0,31.1,0
		c2.2,3.9,4.4,7.6,6.5,11.4c4.6,0,9.1,0,14.2,0C113.7,1072.6,102.2,1050.9,89.7,1029.1z M98.5,1071.6h-3.1H92h-3.3H81l8.6-17.5
		L98.5,1071.6z"/>
	<path d="M406.9,1029.1c-12.3,22.1-24.2,43.5-36.3,65.3c5.3,0,9.9,0,14.4,0c2.2-3.9,4.3-7.7,6.3-11.3c10.6,0,20.9,0,31.1,0
		c2.2,3.9,4.4,7.6,6.5,11.4c4.6,0,9.1,0,14.2,0C430.9,1072.6,419.4,1050.9,406.9,1029.1z M415.6,1071.6h-3.1h-3.4h-3.3h-7.7
		l8.6-17.5L415.6,1071.6z"/>
	<path d="M786.7,1029.1c-12.3,22.1-24.2,43.5-36.3,65.3c5.3,0,9.9,0,14.4,0c2.2-3.9,4.3-7.7,6.3-11.3c10.6,0,20.9,0,31.1,0
		c2.2,3.9,4.4,7.6,6.5,11.4c4.6,0,9.1,0,14.2,0C810.7,1072.6,799.2,1050.9,786.7,1029.1z M795.5,1071.6h-3.1H789h-3.3H778l8.6-17.5
		L795.5,1071.6z"/>
	<path d="M147.4,1032c-4.7,0-8.6,0-12.8,0c0,21,0,41.5,0,62.4c1.9,0,3.8,0,5.8,0c13.1,0,26,0,39.3,0v-12.1v-0.6h-32.3
		C147.4,1065,147.4,1048.7,147.4,1032z"/>
	<path d="M175.7,1032v0.4v8.7v2.2v0.3h20.1c0,17.3,0,33.9,0,50.7c4.6,0,8.8,0,13.5,0c0-16.9,0-33.6,0-50.7h20.1v-0.3v-10.9v-0.4
		L175.7,1032L175.7,1032z"/>
	<polygon points="285.2,1032 285.2,1054.3 254,1054.3 254,1032 241.1,1032 241.1,1094.4 254,1094.4 254,1068.2 285.2,1068.2 
		285.2,1094.4 298,1094.4 298,1032 	"/>
	<polygon points="728.5,1032 728.5,1054.3 697.3,1054.3 697.3,1032 684.5,1032 684.5,1094.4 697.3,1094.4 697.3,1068.2 
		728.5,1068.2 728.5,1094.4 741.4,1094.4 741.4,1032 	"/>
	<polygon points="365.9,1043.2 365.9,1031.9 330.2,1031.9 326.9,1031.9 317.5,1031.9 317.5,1094.3 319.1,1094.3 330.2,1094.3 
		365.9,1094.3 365.9,1082 330.2,1082 330.2,1066.6 355.5,1066.6 355.5,1055.2 330.2,1055.2 330.2,1043.2 	"/>
	<path d="M890.6,1031.9c-4.2,0-8.4,0-12.9,0c0,2.5,0,5,0,7.3c0,1.2,0,2.4,0,3.5v3.5v11.8v5.3v5.5v4.2l-32.6-41.4c-4.5,0-8.5,0-13,0
		c0,21.2,0,41.8,0,62.6c4.3,0,8.2,0,12.8,0c0-14,0-27.7,0-41.4c12.1,13.4,22.2,27.9,32.9,41.4c4.7,0,8.9,0,13.1,0
		c0-0.3,0.1-0.7,0.1-1.2l0,0v-57v-4.2L890.6,1031.9L890.6,1031.9z"/>
	<path d="M1109.6,1032.1c-4.2,0-8.4,0-12.9,0c0,2.5,0,5,0,7.3c0,1.2,0,2.4,0,3.5v3.5v11.8v5.3v5.5v4.2l-32.6-41.4c-4.5,0-8.5,0-13,0
		c0,21.2,0,41.8,0,62.6c4.3,0,8.2,0,12.8,0c0-14,0-27.7,0-41.4c12.1,13.4,22.2,27.9,32.9,41.4c4.7,0,8.9,0,13.1,0
		c0-0.3,0.1-0.7,0.1-1.2l0,0v-57v-4.2L1109.6,1032.1L1109.6,1032.1z"/>
	<path d="M950.3,1062.3c-2.6-1.6-5.6-2.7-8.6-3.5c-4.8-1.4-9.8-2.3-14.7-3.6c-2.6-0.7-4.7-2-5.6-4.3l0,0c0,0-0.1-0.4-0.3-0.9
		c0-0.1-0.1-0.3-0.1-0.4c0-0.3-0.1-0.5-0.1-0.8c0-0.1,0-0.2,0-0.3c0,0,0,0,0-0.1c0-2.7,1.6-6.5,10.7-6.1c0.9,0.1,3.2,0.4,8.1,1.7
		c3.2,0.9,6.5,1.9,9.9,2.9c2-3,4-6,6.3-9.4c-9.4-5.9-20.1-7.5-29-6.7c-5.3,0.5-10.3,2.3-14.4,5.8c-3.3,2.9-5.6,6.4-5.7,11
		c-0.3,8.4,3.4,14.5,11.6,17.6c4.5,1.7,9.3,2.5,14,3.8c3,0.8,6.1,1.4,8.8,2.8c3.9,1.9,4.2,6.6,0.5,9c-2,1.3-4.6,2.1-7,2.4
		c-5.9,0.7-11.6-0.5-17.1-2.6c-2.1-0.8-4.2-1.7-6.5-2.6c-2.4,3.6-4.6,6.7-6.7,9.9c0.7,0.6,1,0.8,1.3,1c8.1,4.9,17.2,6.4,26.3,6.6
		c7,0.2,13.9-1.5,19.7-6.1C960.9,1082.2,960.3,1068.3,950.3,1062.3z"/>
</g>
<path class="st4" d="M582.2,1038.2c0.1,0.4,34.9,21.1,34.9,21.1v10.1l-34.9,21.1v-14.4l21.3-11.8l-20.7-11.1L582.2,1038.2z"/>
<path class="st1" d="M527.3,1038.2c-0.1,0.4-34.9,21.1-34.9,21.1v10.1l34.9,21.1v-14.4l-21.3-11.8l20.7-11.1L527.3,1038.2z"/>
<path class="st2" d="M560.1,1032.9c0.7,0,12.2,0,12.2,0l-23.1,63.1h-13.1L560.1,1032.9z"/>
</svg>
