<?xml version="1.0" encoding="utf-8"?>
<!-- Generator: Adobe Illustrator 19.2.1, SVG Export Plug-In . SVG Version: 6.00 Build 0)  -->
<svg version="1.1" id="Layer_1" xmlns="http://www.w3.org/2000/svg" xmlns:xlink="http://www.w3.org/1999/xlink" x="0px" y="0px"
	 viewBox="0 0 1165 116.6" style="enable-background:new 0 0 1165 116.6;" xml:space="preserve">
<style type="text/css">
	.st0{fill:#002C8B;}
	.st1{fill:#FFDF01;}
	.st2{fill:#C52CD8;}
	.st3{fill:#FFFFFF;}
	.st4{fill:#C52BDC;}
</style>
<rect width="1165" height="116.6"/>
<text transform="matrix(1 0 0 1 103.1164 -186.2829)" class="st1" style="font-family:'HandelGothic'; font-size:85.7269px;">ALTHEA &lt;/&gt; HANSON</text>
<path d="M377.2,729.9h0.7l30.1,59.6l-0.4,0.6h-13.3l-3.9-8.7h-25.8l-4,8.7h-13l-0.5-0.6L377.2,729.9z M377.5,752.8l-7.7,17h15.3
	L377.5,752.8z"/>
<path d="M450.9,777.3v12.8H414v-59.4h13v46.5H450.9z"/>
<path d="M478.4,790.2h-13v-46.5h-18.7v-12.8h50.5v12.8h-18.7V790.2z"/>
<path d="M517.2,790.2h-13v-59.4h13v25.4h28.1v-25.4h13v59.4h-13V769h-28.1V790.2z"/>
<path d="M607.1,777.8v12.4h-36.7v-59.4h36.7v12.4h-23.7v13h19.6v11.6h-19.6v10H607.1z"/>
<path d="M640.6,729.9h0.7l30.1,59.6l-0.4,0.6h-13.3l-3.9-8.7H628l-4,8.7h-13l-0.5-0.6L640.6,729.9z M641,752.8l-7.7,17h15.3
	L641,752.8z"/>
<path class="st0" d="M698.7,762.9l38.9-19.6v11l-19.6,8.9l19.6,8.8v11l-38.9-19.5V762.9z"/>
<path class="st1" d="M753.2,790.2h-9.7l21.2-59.4h9.7L753.2,790.2z"/>
<path class="st2" d="M819.1,763.4l-38.9,19.5v-11l19.5-8.8l-19.5-8.9v-11l38.9,19.6V763.4z"/>
<path d="M865.5,790.2h-13v-59.4h13v25.4h28.1v-25.4h13v59.4h-13V769h-28.1V790.2z"/>
<path d="M942.6,729.9h0.7l30.1,59.6l-0.4,0.6h-13.3l-3.9-8.7H930l-4,8.7h-13l-0.5-0.6L942.6,729.9z M942.9,752.8l-7.7,17h15.3
	L942.9,752.8z"/>
<path d="M992.4,790.2h-13v-60.3h0.8l39.7,34.6v-33.7h13v60.3h-0.8l-39.7-34.9V790.2z"/>
<path d="M1043.1,746.9c0-5.2,1.8-9.4,5.3-12.4c3.5-3,8.1-4.6,13.6-4.6c7.8,0,14.1,2.9,18.7,8.6l-9.5,9c-3-3.4-6.2-5.2-9.5-5.2
	c-1.6,0-2.9,0.4-4,1.2c-1.1,0.8-1.6,1.9-1.6,3.3c0,0.8,0.2,1.4,0.6,2.1c0.4,0.6,1.1,1.3,2.2,2c1,0.7,2,1.3,2.8,1.7
	c0.8,0.5,2.2,1.2,4.1,2.1c1.9,0.9,3.3,1.7,4.4,2.2c8.2,4.3,12.3,9.8,12.3,16.7c0,5.1-1.8,9.3-5.4,12.6c-3.6,3.3-8.4,4.9-14.6,4.9
	c-4.7,0-9-0.9-12.6-2.7c-3.7-1.8-6.7-4.3-9.1-7.4l9.5-9c3.4,4.4,7.6,6.5,12.4,6.5c2,0,3.7-0.5,4.9-1.5c1.2-1,1.9-2.2,1.9-3.7
	c0-2.3-2.4-4.7-7.3-7.3c-0.6-0.3-2.7-1.3-6.2-3.1C1047.4,758.8,1043.1,753.5,1043.1,746.9z"/>
<path d="M1117.8,791.1c-8.9,0-16.2-2.9-21.8-8.8c-5.7-5.8-8.5-13.1-8.5-21.8c0-8.6,2.9-15.8,8.6-21.7c5.7-5.9,13.1-8.9,22.1-8.9
	c9,0,16.3,2.9,21.9,8.8c5.6,5.9,8.4,13.2,8.4,21.8c0,8.6-2.9,15.8-8.6,21.7C1134.1,788.1,1126.7,791.1,1117.8,791.1z M1117.8,778.2
	c4.8,0,9-1.7,12.3-5.1c3.4-3.4,5-7.6,5-12.5c0-5.3-1.7-9.6-5-12.9c-3.3-3.3-7.4-5-12.4-5c-4.8,0-8.9,1.7-12.2,5
	c-3.3,3.3-5,7.6-5,12.8c0,5,1.7,9.1,5,12.5C1109,776.5,1113,778.2,1117.8,778.2z"/>
<path d="M1170.3,790.2h-13v-60.3h0.8l39.7,34.6v-33.7h13v60.3h-0.8l-39.7-34.9V790.2z"/>
<path class="st3" d="M34.9,46.4l9.4,16.8L29.1,90.6L28.3,92H9.7l2.3-4.1L34.9,46.4z M90.7,92H72.1l-0.8-1.4l-14-25.2L50.5,53
	l-0.3-0.5l-9.4-16.8l0-0.1l0.7-1.4l6.1-11l0.7-1.5H52l0.7,1.5l6.1,11l29.6,53.6L90.7,92z"/>
<path class="st3" d="M154.9,77.2V92H99.2V21.5h14.9v55.6H154.9z"/>
<path class="st3" d="M206.4,22v14.9h-24.6v0H167v0h-23.6V22H206.4z M167,92V47.3h14.9V92H167z"/>
<path class="st3" d="M278.9,22.2V92h-14.9V62.3h-32.2V92H217V22.2h14.9v25.2h32.2V22.2H278.9z"/>
<path class="st3" d="M352.2,22v14.9h-62.5V24.8l0-2.8H352.2z M304.5,77.2h47.7V92h-62.5V79.9l0-2.8v-30l14.9,0.1H346v14.9h-41.4
	V77.2z"/>
<path class="st3" d="M385.7,46.4l9.4,16.8l-15.2,27.4l-0.8,1.4h-18.6l2.3-4.1L385.7,46.4z M441.4,92h-18.6l-0.8-1.4l-14-25.2
	L401.2,53l-0.3-0.5l-9.4-16.8l0-0.1l0.7-1.4l6.1-11l0.7-1.5h3.6l0.7,1.5l6.1,11l29.6,53.6L441.4,92z"/>
<path class="st0" d="M496.4,56.2l51-25.7v14.4l-25.6,11.7l25.6,11.5v14.4l-51-25.6V56.2z"/>
<path class="st1" d="M567.8,92h-12.7L583,14.2h12.7L567.8,92z"/>
<path class="st2" d="M654.3,56.8l-51,25.6V68.1L629,56.5l-25.6-11.7V30.5l51,25.7V56.8z"/>
<path class="st3" d="M771,22.2V92h-14.9V62.3h-32.2V92H709V22.2h14.9v25.2h32.2V22.2H771z"/>
<path class="st3" d="M806.9,46.4l9.4,16.8l-15.2,27.4l-0.8,1.4h-18.6l2.3-4.1L806.9,46.4z M862.7,92h-18.6l-0.8-1.4l-14-25.2
	L822.5,53l-0.3-0.5l-9.4-16.8l0-0.1l0.7-1.4l6.1-11l0.7-1.5h3.6l0.7,1.5l6.1,11l29.6,53.6L862.7,92z"/>
<path class="st3" d="M927.9,21.9V92h-3.6l-10.5-10.5l-17.6-17.6l-10.2-10.2l-14.9-14.9V30l0-6.7v-1.8h3.7l38.2,38.2V21.9H927.9z
	 M871.2,53.5l14.9,14.9v23.5h-14.9V53.5z"/>
<path class="st3" d="M998.2,60.3c1.8,3.2,2.8,6.8,2.8,10.5c0,3.7-1,7.3-2.8,10.5c-3.8,6.6-10.8,10.7-18.4,10.7h-21.1
	c-9.3,0-17.2-6.3-19.5-14.9c-0.5-1.7-0.7-3.5-0.7-5.4H953c0,2.5,1.6,4.6,3.9,5.4h22.9c3.5,0,6.4-2.9,6.4-6.4c0-3.5-2.9-6.4-6.4-6.4
	h-20.1c-5.9,0-11.6-2.5-15.5-6.8c-1.1-1.2-2.1-2.5-2.9-3.9c-1.8-3.2-2.8-6.8-2.8-10.5c0-3.7,1-7.3,2.8-10.5
	C945,26.1,952.1,22,959.7,22h21.4c9.3,0,17.2,6.3,19.5,14.9c0.5,1.7,0.7,3.5,0.7,5.4h-14.6c0-2.5-1.6-4.6-3.9-5.4h-23.3
	c-3.5,0-6.4,2.9-6.4,6.4c0,3.5,2.8,6.4,6.4,6.4h20.1C987.4,49.6,994.5,53.7,998.2,60.3z"/>
<path class="st3" d="M1075.9,57.1c0,19.2-15.6,34.9-34.9,34.9s-34.9-15.6-34.9-34.9c0-19.2,15.6-34.9,34.9-34.9
	S1075.9,37.9,1075.9,57.1z M1041,36.8c-11.2,0-20.3,9.1-20.3,20.3c0,11.2,9.1,20.3,20.3,20.3c11.2,0,20.3-9.1,20.3-20.3
	C1061.4,45.9,1052.2,36.8,1041,36.8z"/>
<path class="st3" d="M1143.3,21.9V92h-3.6l-10.5-10.5l-17.6-17.6l-10.2-10.2l-14.9-14.9V30l0-6.7v-1.8h3.7l38.2,38.2V21.9H1143.3z
	 M1086.6,53.5l14.9,14.9v23.5h-14.9V53.5z"/>
<text transform="matrix(1 0 0 1 467.4388 -170.2063)" style="font-family:'BodoniBT-Bold'; font-size:64.7509px;">ALTHEA   HANSON</text>
<g>
	<g>
		<path class="st3" d="M57.7,389.1V386h3.9c1,0,1.9-0.3,2.6-1c0.7-0.7,1.4-1.9,2.1-3.8l21.5-56h3.8L115,386h5.6v3.1H90.3V386h7.6
			l-5.5-14.6H73.3l-4.1,10.7c-0.1,0.2-0.2,0.5-0.2,0.9s-0.1,0.9-0.1,1.4s0.2,0.9,0.7,1.2c0.5,0.3,1.2,0.4,2,0.4h5.6v3.1H57.7z
			 M74.4,368.3h17l-8.3-22L74.4,368.3z"/>
		<path class="st3" d="M125.1,389.1V386h6.4v-56.6h-6.4v-2.9h31.2v2.9h-8.7V386h9.2c5.1,0,9.2-1.4,12.1-4.1s5.2-7.3,6.9-13.7h3
			l-0.7,20.9H125.1z"/>
		<path class="st3" d="M188.3,389.1V386h7.7v-56.6h-3.4c-4.1,0-7.3,1.3-9.7,3.8c-2.4,2.5-4.5,7.1-6.3,13.5h-2.5l0.8-20.2h58.4
			l0.8,20.2h-2.5c-1.7-6.3-3.8-10.8-6.2-13.4c-2.4-2.6-5.6-4-9.6-4h-3.6V386h7.7v3.1H188.3z"/>
		<path class="st3" d="M238.8,389.1V386h7.6v-56.6h-7.6v-2.8h31v2.8h-7.5v25.7h21v-25.7h-7.5v-2.8h30.9v2.8h-7.6V386h7.6v3.1h-30.9
			V386h7.5v-27.3h-21V386h7.5v3.1H238.8z"/>
		<path class="st3" d="M312.8,389.1V386h7.6v-56.6h-6.5v-2.9h52.2l0.2,16.5h-3.2c-2.1-5.3-4.3-8.9-6.5-10.8
			c-2.2-1.9-5.4-2.8-9.6-2.8h-10.8v25.7c0.3,0,0.5,0.1,0.9,0.1c0.3,0,0.8,0,1.3,0c3.4,0,6-0.9,7.8-2.7c1.8-1.8,2.9-4.7,3.4-8.8h3.2
			v26.7h-3.2c-0.3-4.3-1.4-7.4-3.2-9.3c-1.8-1.9-4.6-2.8-8.4-2.8h-1.8V386h10.5c5.2,0,9.2-1.4,12.1-4.1s5.2-7.3,6.9-13.7h3
			l-0.7,20.9H312.8z"/>
		<path class="st3" d="M373.5,389.1V386h3.9c1,0,1.9-0.3,2.6-1c0.7-0.7,1.4-1.9,2.1-3.8l21.5-56h3.8l23.5,60.8h5.6v3.1H406V386h7.6
			l-5.5-14.6h-19.1l-4.1,10.7c-0.1,0.2-0.2,0.5-0.2,0.9s-0.1,0.9-0.1,1.4s0.2,0.9,0.7,1.2c0.5,0.3,1.2,0.4,2,0.4h5.6v3.1H373.5z
			 M390.1,368.3h17l-8.3-22L390.1,368.3z"/>
		<path class="st3" d="M533.7,332.9v10.3l-42,17.2l42,17.1v10.3L478.3,365v-9.4L533.7,332.9z"/>
		<path class="st3" d="M548.9,398h-5.3l23.5-72.8h5.3L548.9,398z"/>
		<path class="st3" d="M584.8,332.9l55.4,22.7v9.4l-55.4,22.8v-10.3l42.1-17.1l-42.1-17.2V332.9z"/>
		<path class="st3" d="M684.7,389.1V386h7.6v-56.6h-7.6v-2.8h31v2.8h-7.5v25.7h21v-25.7h-7.5v-2.8h30.9v2.8h-7.6V386h7.6v3.1h-30.9
			V386h7.5v-27.3h-21V386h7.5v3.1H684.7z"/>
		<path class="st3" d="M755.9,389.1V386h3.9c1,0,1.9-0.3,2.6-1c0.7-0.7,1.4-1.9,2.1-3.8l21.5-56h3.8l23.5,60.8h5.6v3.1h-30.3V386
			h7.6l-5.5-14.6h-19.1l-4.1,10.7c-0.1,0.2-0.2,0.5-0.2,0.9c0,0.4-0.1,0.9-0.1,1.4s0.2,0.9,0.7,1.2c0.5,0.3,1.2,0.4,2,0.4h5.6v3.1
			H755.9z M772.6,368.3h17l-8.3-22L772.6,368.3z"/>
		<path class="st3" d="M821.8,389.1V386h4.8c1.3,0,2.1-0.3,2.6-0.8s0.7-1.6,0.7-3.2v-49.3c0-1.3-0.3-2.2-0.8-2.7
			c-0.5-0.4-1.6-0.6-3.3-0.6H822v-2.9h25.4l26.4,36V334c0-1.9-0.3-3.2-0.9-3.8s-1.8-0.9-3.7-0.9h-4v-2.9h20v2.9h-3.7
			c-1.6,0-2.7,0.3-3.2,1c-0.6,0.6-0.9,1.9-0.9,3.7v56.5h-2.6l-41-56.4v48.4c0,1.1,0.3,1.9,0.9,2.5s1.5,0.9,2.7,0.9h5.6v3.1H821.8z"
			/>
		<path class="st3" d="M892.9,389.9v-18.4h3.7c1.6,5.3,4,9.4,7.1,12.1c3.2,2.7,7,4.1,11.6,4.1c4.1,0,7.5-1.1,10.2-3.3
			c2.7-2.2,4-5,4-8.4c0-1.8-0.3-3.3-1-4.5c-0.6-1.2-1.7-2.3-3.3-3.3c-1.8-1.2-5.2-2.3-10.4-3.5c-1.9-0.4-3.4-0.8-4.4-1
			c-6.1-1.5-10.5-3.8-13.2-6.8c-2.7-3-4.1-7-4.1-12c0-5.9,1.8-10.6,5.5-14.2s8.4-5.4,14.3-5.4c2.4,0,4.7,0.3,6.8,1
			c2.1,0.7,4.1,1.7,5.9,3l3.4-2.8h3l0.4,16.6h-3.2c-1.2-4.9-3.3-8.6-6.1-11.1s-6.4-3.8-10.7-3.8c-3.5,0-6.5,0.9-8.7,2.6
			c-2.3,1.7-3.4,3.9-3.4,6.5c0,4,4.2,6.9,12.6,8.7c1.1,0.3,2,0.4,2.6,0.6c7.8,1.8,13.3,4.4,16.4,7.7c3.2,3.3,4.7,8.1,4.7,14.2
			c0,6.3-2,11.6-6,15.8c-4,4.2-9.1,6.3-15.2,6.3c-3.1,0-5.8-0.4-8.2-1.1c-2.4-0.7-4.5-1.8-6.6-3.4l-4.3,3.7H892.9z"/>
		<path class="st3" d="M945.5,357.9c0-4.2,0.8-8.2,2.4-12.1c1.6-3.9,4-7.4,7.1-10.6c3.3-3.4,6.8-5.8,10.6-7.5
			c3.7-1.6,7.8-2.4,12.2-2.4c4.5,0,8.5,0.8,12.3,2.4c3.7,1.6,7.3,4.1,10.6,7.5c3.1,3.2,5.5,6.8,7.2,10.7c1.6,3.9,2.5,7.9,2.5,12.1
			c0,4.3-0.8,8.3-2.5,12.2c-1.6,3.9-4,7.4-7.2,10.6c-3.2,3.3-6.7,5.8-10.5,7.4c-3.8,1.6-7.9,2.4-12.4,2.4c-4.5,0-8.5-0.8-12.3-2.4
			c-3.7-1.6-7.2-4.1-10.5-7.4c-3.1-3.2-5.5-6.8-7.1-10.7C946.3,366.2,945.5,362.1,945.5,357.9z M964.2,357.9c0,8,0.1,13.6,0.4,16.6
			c0.3,3,0.7,5.3,1.4,6.8c1,2.3,2.4,3.9,4.3,4.9c1.8,1,4.4,1.5,7.5,1.5c3.2,0,5.7-0.5,7.6-1.5c1.8-1,3.3-2.6,4.3-4.9
			c0.7-1.6,1.2-4,1.5-7.2c0.3-3.2,0.4-8.6,0.4-16.1c0-7.5-0.1-12.9-0.4-16.1c-0.3-3.2-0.8-5.6-1.5-7.2c-1-2.3-2.4-3.9-4.3-4.9
			c-1.8-1-4.4-1.5-7.6-1.5c-3.2,0-5.7,0.5-7.5,1.5c-1.8,1-3.3,2.7-4.3,4.9c-0.7,1.5-1.2,3.7-1.4,6.8
			C964.4,344.4,964.2,349.9,964.2,357.9z"/>
		<path class="st3" d="M1017.6,389.1V386h4.8c1.3,0,2.1-0.3,2.6-0.8s0.7-1.6,0.7-3.2v-49.3c0-1.3-0.3-2.2-0.8-2.7
			c-0.5-0.4-1.6-0.6-3.3-0.6h-3.9v-2.9h25.4l26.4,36V334c0-1.9-0.3-3.2-0.9-3.8s-1.8-0.9-3.7-0.9h-4v-2.9h20v2.9h-3.7
			c-1.6,0-2.7,0.3-3.2,1c-0.6,0.6-0.9,1.9-0.9,3.7v56.5h-2.6l-41-56.4v48.4c0,1.1,0.3,1.9,0.9,2.5s1.5,0.9,2.7,0.9h5.6v3.1H1017.6z"
			/>
	</g>
</g>
<g>
	<text transform="matrix(1 0 0 1 -112.8336 314.3058)" class="st0" style="font-family:'BodoniBT-Bold'; font-size:59.4058px;">&lt;/&gt;</text>
</g>
<text transform="matrix(1 0 0 1 205.1505 -202.3009)" style="font-family:'BodoniMT-Bold'; font-size:84.6152px;">&lt;/&gt;</text>
<g>
	<g>
		<path class="st1" d="M-272.9-0.1l-58.9-24.6v-9l58.9-24.6v10.7l-45.5,18.5l45.5,18.4V-0.1z"/>
		<path class="st1" d="M-265.9,8.2l20.2-74.1h10.5l-20.2,74.1H-265.9z"/>
		<path class="st1" d="M-228.2-58.2l58.9,24.6v9L-228.2,0v-10.7l45.5-18.5l-45.5-18.4V-58.2z"/>
	</g>
</g>
<g>
	<path class="st0" d="M-272.9,105.9l-58.9-24.6v-9l58.9-24.6v10.7l-45.5,18.5l45.5,18.4V105.9z"/>
	<path class="st0" d="M-265.9,114.2l20.2-74.1h10.5l-20.2,74.1H-265.9z"/>
	<path class="st0" d="M-228.2,47.8l58.9,24.6v9l-58.9,24.6V95.3l45.5-18.5l-45.5-18.4V47.8z"/>
</g>
<g>
	<path d="M-272.9,246.1l-58.9-24.6v-9l58.9-24.6v10.7l-45.5,18.5l45.5,18.4V246.1z"/>
	<path d="M-265.9,254.3l20.2-74.1h10.5l-20.2,74.1H-265.9z"/>
	<path d="M-228.2,187.9l58.9,24.6v9l-58.9,24.6v-10.7l45.5-18.5l-45.5-18.4V187.9z"/>
</g>
<rect x="1331.4" y="57.6" class="st2" width="80.8" height="59"/>
<text transform="matrix(1 0 0 1 467.4392 -267.3744)" style="font-family:'BOVEN1'; font-size:135.9757px;">&lt;/&gt;</text>
<g>
	<path d="M1001.4,1030.4c15.5-0.7,32.1,8.7,34.7,29.4c1.4,11.5-3.8,24.6-16.6,31.7c-13.9,7.7-32.4,5.1-43.2-7.1
		c-13.3-15-10-42.1,11.6-51.4C992.4,1031.1,997.1,1030.2,1001.4,1030.4z M1022.8,1062.7c-0.1-11.2-9.4-20.3-20.6-20.3
		c-11.5,0-20.7,9.4-20.6,20.9c0.1,11.3,9.1,20,20.6,20C1013.9,1083.3,1022.9,1074.3,1022.8,1062.7z"/>
	<path d="M823.4,1094.5c-4.8,0-9.2,0-14.2,0c-2.1-3.6-4.3-7.4-6.5-11.4c-10.2,0-20.3,0-31.1,0c-2,3.5-4.1,7.4-6.4,11.4
		c-4.5,0-8.9,0-13.4,0c1-4.4,24.9-48.3,35.6-65.2C799.5,1051.1,811.3,1072.6,823.4,1094.5z M796.4,1071.3c-3.1-6-5.9-11.2-9.2-17.5
		c-3.5,6.3-6.6,11.5-8.9,17.5C784.2,1071.3,789.6,1071.3,796.4,1071.3z"/>
	<path d="M89.7,1029.1c-12.3,22.1-24.2,43.5-36.3,65.3c5.3,0,9.9,0,14.4,0c2.2-3.9,4.3-7.7,6.3-11.3c10.6,0,20.9,0,31.1,0
		c2.2,3.9,4.4,7.6,6.5,11.4c4.6,0,9.1,0,14.2,0C113.7,1072.6,102.2,1050.9,89.7,1029.1z M98.5,1071.6h-3.1H92h-3.3H81l8.6-17.5
		L98.5,1071.6z"/>
	<path d="M406.9,1029.1c-12.3,22.1-24.2,43.5-36.3,65.3c5.3,0,9.9,0,14.4,0c2.2-3.9,4.3-7.7,6.3-11.3c10.6,0,20.9,0,31.1,0
		c2.2,3.9,4.4,7.6,6.5,11.4c4.6,0,9.1,0,14.2,0C430.9,1072.6,419.4,1050.9,406.9,1029.1z M415.6,1071.6h-3.1h-3.4h-3.3h-7.7
		l8.6-17.5L415.6,1071.6z"/>
	<path d="M786.7,1029.1c-12.3,22.1-24.2,43.5-36.3,65.3c5.3,0,9.9,0,14.4,0c2.2-3.9,4.3-7.7,6.3-11.3c10.6,0,20.9,0,31.1,0
		c2.2,3.9,4.4,7.6,6.5,11.4c4.6,0,9.1,0,14.2,0C810.7,1072.6,799.2,1050.9,786.7,1029.1z M795.5,1071.6h-3.1H789h-3.3H778l8.6-17.5
		L795.5,1071.6z"/>
	<path d="M147.4,1032c-4.7,0-8.6,0-12.8,0c0,21,0,41.5,0,62.4c1.9,0,3.8,0,5.8,0c13.1,0,26,0,39.3,0v-12.1v-0.6h-32.3
		C147.4,1065,147.4,1048.7,147.4,1032z"/>
	<path d="M175.7,1032v0.4v8.7v2.2v0.3h20.1c0,17.3,0,33.9,0,50.7c4.6,0,8.8,0,13.5,0c0-16.9,0-33.6,0-50.7h20.1v-0.3v-10.9v-0.4
		H175.7z"/>
	<polygon points="285.2,1032 285.2,1054.3 254,1054.3 254,1032 241.1,1032 241.1,1094.4 254,1094.4 254,1068.2 285.2,1068.2 
		285.2,1094.4 298,1094.4 298,1032 	"/>
	<polygon points="728.5,1032 728.5,1054.3 697.3,1054.3 697.3,1032 684.5,1032 684.5,1094.4 697.3,1094.4 697.3,1068.2 
		728.5,1068.2 728.5,1094.4 741.4,1094.4 741.4,1032 	"/>
	<polygon points="365.9,1043.2 365.9,1031.9 330.2,1031.9 326.9,1031.9 317.5,1031.9 317.5,1094.3 319.1,1094.3 330.2,1094.3 
		365.9,1094.3 365.9,1082 330.2,1082 330.2,1066.6 355.5,1066.6 355.5,1055.2 330.2,1055.2 330.2,1043.2 	"/>
	<path d="M890.6,1031.9c-4.2,0-8.4,0-12.9,0c0,2.5,0,5,0,7.3c0,1.2,0,2.4,0,3.5v3.5v11.8v5.3v5.5v4.2l-32.6-41.4c-4.5,0-8.5,0-13,0
		c0,21.2,0,41.8,0,62.6c4.3,0,8.2,0,12.8,0c0-14,0-27.7,0-41.4c12.1,13.4,22.2,27.9,32.9,41.4c4.7,0,8.9,0,13.1,0
		c0-0.3,0.1-0.7,0.1-1.2v0v-57v-4.2H890.6z"/>
	<path d="M1109.6,1032.1c-4.2,0-8.4,0-12.9,0c0,2.5,0,5,0,7.3c0,1.2,0,2.4,0,3.5v3.5v11.8v5.3v5.5v4.2l-32.6-41.4c-4.5,0-8.5,0-13,0
		c0,21.2,0,41.8,0,62.6c4.3,0,8.2,0,12.8,0c0-14,0-27.7,0-41.4c12.1,13.4,22.2,27.9,32.9,41.4c4.7,0,8.9,0,13.1,0
		c0-0.3,0.1-0.7,0.1-1.2v0v-57v-4.2H1109.6z"/>
	<path d="M950.3,1062.3c-2.6-1.6-5.6-2.7-8.6-3.5c-4.8-1.4-9.8-2.3-14.7-3.6c-2.6-0.7-4.7-2-5.6-4.3l0,0c0,0-0.1-0.4-0.3-0.9
		c0-0.1-0.1-0.3-0.1-0.4c0-0.3-0.1-0.5-0.1-0.8c0-0.1,0-0.2,0-0.3c0,0,0,0,0-0.1c0-2.7,1.6-6.5,10.7-6.1c0.9,0.1,3.2,0.4,8.1,1.7
		c3.2,0.9,6.5,1.9,9.9,2.9c2-3,4-6,6.3-9.4c-9.4-5.9-20.1-7.5-29-6.7c-5.3,0.5-10.3,2.3-14.4,5.8c-3.3,2.9-5.6,6.4-5.7,11
		c-0.3,8.4,3.4,14.5,11.6,17.6c4.5,1.7,9.3,2.5,14,3.8c3,0.8,6.1,1.4,8.8,2.8c3.9,1.9,4.2,6.6,0.5,9c-2,1.3-4.6,2.1-7,2.4
		c-5.9,0.7-11.6-0.5-17.1-2.6c-2.1-0.8-4.2-1.7-6.5-2.6c-2.4,3.6-4.6,6.7-6.7,9.9c0.7,0.6,1,0.8,1.3,1c8.1,4.9,17.2,6.4,26.3,6.6
		c7,0.2,13.9-1.5,19.7-6.1C960.9,1082.2,960.3,1068.3,950.3,1062.3z"/>
</g>
<path class="st4" d="M582.2,1038.2c0.1,0.4,34.9,21.1,34.9,21.1v10.1l-34.9,21.1v-14.4l21.3-11.8l-20.7-11.1L582.2,1038.2z"/>
<path class="st0" d="M527.3,1038.2c-0.1,0.4-34.9,21.1-34.9,21.1v10.1l34.9,21.1v-14.4l-21.3-11.8l20.7-11.1L527.3,1038.2z"/>
<path class="st1" d="M560.1,1032.9c0.7,0,12.2,0,12.2,0l-23.1,63.1h-13.1L560.1,1032.9z"/>
</svg>
